#!OML:ASF E:\Style4\Style4.ASF
:FULLY-SPECIFIED
:DEGREES
1374
root 0.373244 17.2144 -0.768833 1.78775 17.8653 0.743829
lowerback 15.2151 3.80873 -0.754251
upperback 11.4976 5.05724 0.485317
thorax 3.61497 2.54357 0.341595
lowerneck 10.8873 -3.4963 -6.74994
upperneck 2.18298 -5.30563 4.52497
head -0.868128 -2.74996 2.84345
rclavicle -7.15625e-015 5.56597e-015
rhumerus 18.3351 15.7218 -82.5727
rradius 131.788
rwrist 18.1231
rhand 31.0218 -10.9791
rfingers 7.12502
rthumb 54.6232 -29.3869
lclavicle -7.15625e-015 5.56597e-015
lhumerus 23.6603 -21.8755 78.9475
lradius 133.962
lwrist -14.3038
lhand 26.3272 45.8736
lfingers 7.12502
lthumb 50.3768 66.8963
rfemur -19.6917 -17.2551 16.7402
rtibia 46.4589
rfoot -24.9374 -22.3428
rtoes -11.7731
lfemur -25.4189 -6.49687 -21.1843
ltibia 45.9816
lfoot -20.7904 4.70981
ltoes -16.3361
1375
root 0.370685 17.215 -0.767393 1.76813 17.9396 0.795913
lowerback 15.2166 3.79507 -0.768934
upperback 11.5394 5.03991 0.456031
thorax 3.66165 2.53559 0.323269
lowerneck 10.9014 -3.54004 -6.90038
upperneck 2.17217 -5.38105 4.56872
head -0.864713 -2.78917 2.88908
rclavicle 4.57205e-014 -3.02153e-014
rhumerus 17.8505 15.9045 -82.6279
rradius 131.908
rwrist 17.8327
rhand 30.912 -11.3107
rfingers 7.12502
rthumb 54.525 -29.7875
lclavicle 4.57205e-014 -3.02153e-014
lhumerus 23.7745 -21.8451 78.9904
lradius 133.886
lwrist -14.6618
lhand 26.0599 45.595
lfingers 7.12502
lthumb 50.1324 66.7479
rfemur -19.6386 -17.1983 16.6991
rtibia 46.4635
rfoot -24.9271 -22.4969
rtoes -11.9919
lfemur -25.3694 -6.50761 -21.2353
ltibia 45.9624
lfoot -20.782 4.58376
ltoes -16.0543
1376
root 0.369491 17.2157 -0.765217 1.76796 18.009 0.850165
lowerback 15.1935 3.79559 -0.764855
upperback 11.5742 5.0434 0.425318
thorax 3.71523 2.53916 0.292021
lowerneck 10.8446 -3.59063 -7.02273
upperneck 2.24722 -5.45898 4.58123
head -0.821983 -2.82888 2.91451
rclavicle 7.95139e-015 -1.98785e-015
rhumerus 17.39 16.0429 -82.7064
rradius 132.013
rwrist 17.6731
rhand 30.9453 -11.519
rfingers 7.12502
rthumb 54.5547 -29.9749
lclavicle 7.95139e-015 -1.98785e-015
lhumerus 23.8647 -21.8377 79.0462
lradius 133.857
lwrist -14.8182
lhand 25.5558 45.487
lfingers 7.12502
lthumb 49.671 66.8808
rfemur -19.5924 -17.1496 16.6476
rtibia 46.4666
rfoot -24.9829 -22.5557
rtoes -11.6882
lfemur -25.3369 -6.54386 -21.289
ltibia 45.934
lfoot -20.7929 4.55421
ltoes -16.0712
1377
root 0.367759 17.2163 -0.762774 1.74897 18.0838 0.854695
lowerback 15.1816 3.74864 -0.803892
upperback 11.606 4.97881 0.44718
thorax 3.7514 2.50366 0.346374
lowerneck 10.7156 -3.56184 -7.28107
upperneck 2.3879 -5.44396 4.60837
head -0.747649 -2.82367 2.96361
rclavicle -1.55052e-014 -4.37326e-015
rhumerus 16.9703 16.3065 -82.8392
rradius 132.143
rwrist 17.5455
rhand 31.4249 -11.538
rfingers 7.12502
rthumb 54.9832 -29.6888
lclavicle -1.55052e-014 -4.37326e-015
lhumerus 23.9167 -21.7071 79.1234
lradius 133.886
lwrist -14.9458
lhand 24.9298 45.5746
lfingers 7.12502
lthumb 49.0967 67.259
rfemur -19.5357 -17.0924 16.6546
rtibia 46.47
rfoot -25.102 -22.5889
rtoes -11.1608
lfemur -25.3026 -6.53966 -21.2927
ltibia 45.9037
lfoot -20.7982 4.64424
ltoes -16.8809
1378
root 0.367025 17.2167 -0.762063 1.72285 18.147 0.829299
lowerback 15.2029 3.73559 -0.729161
upperback 11.6213 4.97068 0.435213
thorax 3.76431 2.50497 0.292938
lowerneck 10.7027 -3.57366 -7.30553
upperneck 2.44328 -5.46197 4.56692
head -0.726515 -2.83218 2.95281
rclavicle -5.60573e-014 7.95139e-015
rhumerus 16.5516 16.3732 -82.9746
rradius 132.286
rwrist 17.404
rhand 31.8214 -11.655
rfingers 7.12502
rthumb 55.3366 -29.5474
lclavicle -5.60573e-014 7.95139e-015
lhumerus 23.9824 -21.7167 79.1365
lradius 133.891
lwrist -15.0476
lhand 24.3524 45.563
lfingers 7.12502
lthumb 48.5659 67.5074
rfemur -19.4904 -17.0541 16.6876
rtibia 46.4631
rfoot -25.1184 -22.6775
rtoes -11.1716
lfemur -25.2752 -6.57558 -21.2678
ltibia 45.8907
lfoot -20.7937 4.66207
ltoes -17.0237
1379
root 0.365494 17.2162 -0.761693 1.76013 18.1662 0.85448
lowerback 15.1239 3.71191 -0.807229
upperback 11.6563 4.93258 0.475351
thorax 3.83431 2.47913 0.389518
lowerneck 10.6662 -3.53718 -7.46934
upperneck 2.48559 -5.43098 4.49314
head -0.706094 -2.8164 2.95514
rclavicle -3.26007e-014 1.66979e-014
rhumerus 16.2293 16.579 -82.9966
rradius 132.452
rwrist 17.2158
rhand 32.0314 -11.8567
rfingers 7.12502
rthumb 55.5234 -29.6099
lclavicle -3.26007e-014 1.66979e-014
lhumerus 23.9683 -21.5024 79.245
lradius 133.874
lwrist -15.2248
lhand 24.0986 45.4995
lfingers 7.12502
lthumb 48.3323 67.5558
rfemur -19.5167 -17.0095 16.6798
rtibia 46.4582
rfoot -25.1506 -22.7261
rtoes -11.2344
lfemur -25.3032 -6.58995 -21.2857
ltibia 45.8863
lfoot -20.7772 4.64559
ltoes -17.021
1380
root 0.363827 17.2168 -0.762012 1.79301 18.2019 0.854773
lowerback 15.0404 3.64481 -0.926366
upperback 11.6925 4.83262 0.559534
thorax 3.90162 2.41765 0.56213
lowerneck 10.6691 -3.44882 -7.80085
upperneck 2.47492 -5.35259 4.46817
head -0.70781 -2.779 3.00671
rclavicle 5.1684e-015 1.47101e-014
rhumerus 15.9191 16.9786 -83.0773
rradius 132.563
rwrist 17.1137
rhand 32.0682 -11.9031
rfingers 7.12502
rthumb 55.5561 -29.6317
lclavicle 5.1684e-015 1.47101e-014
lhumerus 23.8799 -21.1437 79.4015
lradius 133.876
lwrist -15.4656
lhand 24.0431 45.4919
lfingers 7.12502
lthumb 48.2812 67.5725
rfemur -19.552 -16.9957 16.6971
rtibia 46.4528
rfoot -25.1453 -22.7752
rtoes -11.3736
lfemur -25.3401 -6.64085 -21.274
ltibia 45.8812
lfoot -20.7682 4.67573
ltoes -17.1174
1381
root 0.361737 17.2164 -0.762355 1.79173 18.2268 0.828613
lowerback 15.0051 3.66045 -0.869349
upperback 11.7228 4.86084 0.554548
thorax 3.95791 2.43554 0.526094
lowerneck 10.7111 -3.48601 -7.7768
upperneck 2.4179 -5.40144 4.44759
head -0.731405 -2.80233 2.9992
rclavicle 1.70955e-014 -1.98785e-015
rhumerus 15.5541 17.0563 -83.3046
rradius 132.661
rwrist 17.2103
rhand 32.06 -11.7217
rfingers 7.12502
rthumb 55.5488 -29.4558
lclavicle 1.70955e-014 -1.98785e-015
lhumerus 23.9443 -21.1358 79.4246
lradius 133.817
lwrist -15.6038
lhand 24.0078 45.5836
lfingers 7.12502
lthumb 48.2487 67.6796
rfemur -19.5603 -16.9824 16.7402
rtibia 46.4558
rfoot -25.1132 -22.8519
rtoes -11.491
lfemur -25.3473 -6.66207 -21.2389
ltibia 45.8721
lfoot -20.7563 4.63561
ltoes -17.0913
1382
root 0.360965 17.2165 -0.762621 1.80594 18.2209 0.857814
lowerback 14.9726 3.72346 -0.824278
upperback 11.7513 4.95045 0.507296
thorax 4.01336 2.48538 0.445387
lowerneck 10.7464 -3.57578 -7.58967
upperneck 2.3675 -5.50028 4.4379
head -0.75211 -2.84974 2.96602
rclavicle -2.98177e-014 2.46493e-014
rhumerus 15.1397 17.0379 -83.5766
rradius 132.81
rwrist 17.4055
rhand 32.0579 -11.6462
rfingers 7.12502
rthumb 55.547 -29.3817
lclavicle -2.98177e-014 2.46493e-014
lhumerus 24.0307 -21.2251 79.3956
lradius 133.767
lwrist -15.6731
lhand 24.0854 45.6291
lfingers 7.12502
lthumb 48.3202 67.6911
rfemur -19.5666 -16.9849 16.7142
rtibia 46.4549
rfoot -25.1584 -22.8148
rtoes -11.269
lfemur -25.3458 -6.69585 -21.2616
ltibia 45.859
lfoot -20.7416 4.51181
ltoes -16.3487
1383
root 0.359448 17.2164 -0.762806 1.80366 18.2062 0.884535
lowerback 14.9731 3.72365 -0.919945
upperback 11.7629 4.94031 0.534135
thorax 4.0158 2.47314 0.527826
lowerneck 10.7763 -3.56606 -7.64302
upperneck 2.3473 -5.49542 4.44357
head -0.762773 -2.84776 2.97925
rclavicle -1.07344e-014 3.49861e-014
rhumerus 14.7316 17.328 -83.85
rradius 132.959
rwrist 17.6185
rhand 32.0837 -11.5589
rfingers 7.12502
rthumb 55.5699 -29.2772
lclavicle -1.07344e-014 3.49861e-014
lhumerus 23.9076 -21.1166 79.3995
lradius 133.777
lwrist -15.6859
lhand 24.0585 45.7798
lfingers 7.12502
lthumb 48.2954 67.8536
rfemur -19.5536 -16.9714 16.6892
rtibia 46.4413
rfoot -25.1537 -22.7998
rtoes -11.1903
lfemur -25.3337 -6.70724 -21.282
ltibia 45.8547
lfoot -20.7616 4.54052
ltoes -16.2788
